<svg width="688" height="140" viewBox="0 0 688 140" fill="none" xmlns="http://www.w3.org/2000/svg">
<path d="M73 43.1719H79.4002V49.8683L73 43.1719Z" fill="white"/>
<path d="M40.1731 135.89H44.4626C42.6433 133.909 41.0806 131.523 38.0907 131.929C34.406 132.431 31.7829 130.512 28.6389 128.294L32.8988 128.106C30.0067 126.177 27.4917 123.529 23.597 124.166C20.5186 124.668 18.6624 122.273 16.3121 120.701H20.44L20.6016 120.121C18.3361 118.725 16.8637 116.182 13.4779 116.444C9.87733 116.722 9.86049 116.505 7.43671 113.006L12.0728 112.766C10.848 110.077 9.44885 108.339 6.21508 108.748C3.45495 109.097 3.0061 108.434 2.44741 105.125H7.42342C6.8033 101.163 6.80331 101.163 3.41125 101.152C0.862558 101.144 0.862557 101.144 0.496981 97.5924L5.62744 97.3526L5.25212 93.4417H0.0262803V89.9392L5.20694 89.7095V85.8665H0.0561045V82.1889H5.14493V78.2142H0.00915363V74.5744L5.19424 74.3382V70.409H0V66.7972H5.15201V62.7354H0.0221462V59.0628H5.17445V55.1694H0.0599435V51.4351H5.20871V47.585L0.0262803 47.3385V43.7884H5.17918V39.7901H0.0141731V36.1979H5.14758V32.1275H0.0478363V28.4156H16.4524C11.637 23.7745 5.86427 24.1796 0.041046 24.4442V20.6881C2.77253 20.6881 5.47861 20.7542 8.17849 20.6538C9.20655 20.6231 10.2156 20.369 11.1356 19.9091C23.3074 13.4839 35.4574 7.01758 47.5853 0.510261C48.8241 -0.155039 49.764 -0.180429 51.0238 0.496978C63.0228 6.95075 75.0499 13.3518 87.105 19.7C88.2762 20.2712 89.5532 20.593 90.8552 20.645C93.3573 20.7897 95.8735 20.6878 98.5358 20.6878V24.4085C92.8523 24.2443 87.0379 23.7048 82.2999 28.3451H98.5285V32.0658H93.4373V36.0402H98.5459V39.7213H93.4916V43.7001H98.4998V47.3535H93.4837V51.3084H98.5299V55.0315H93.4724V58.9734H98.5403V62.7068H93.4458V66.6785H98.5515V70.3797H93.4904V74.3807H98.4963V78.1445H93.4899V82.0232H98.5335V85.7649H93.4565V89.7434H98.5438V93.3924H93.4024L92.9382 97.4362H98.2751C98.0279 98.837 97.8381 99.9122 97.6358 101.059C94.8305 101.426 90.9252 99.8945 91.284 105.106H96.2007C95.7784 108.177 95.0688 109.122 92.4873 108.744C89.2095 108.263 87.8284 110.09 86.5356 112.758L90.9119 112.97C89.8627 115.646 88.65 116.823 86.2138 116.432C82.4945 115.834 80.485 118.342 77.605 120.436L82.1747 120.643C80.0217 122.369 78.1383 124.654 75.0395 124.154C71.1847 123.531 68.7019 126.182 65.7575 128.071H69.4853C69.5396 128.271 69.5938 128.471 69.6477 128.672C67.203 129.84 65.347 132.339 62.1803 131.869C58.6335 131.342 56.3007 133.282 53.5993 135.777H58.7126C56.7932 138.033 55.4171 140.026 52.3851 139.573C50.7191 139.341 49.0291 139.339 47.3627 139.568C44.2529 139.973 41.9603 138.9 40.1731 135.89ZM16.2708 39.6726C16.2138 40.4906 16.1426 41.0386 16.1423 41.5867C16.137 58.2413 16.1851 74.8978 16.119 91.5527C16.0877 99.3913 19.1776 105.585 25.6827 109.842C31.8753 113.894 38.4964 117.316 44.5199 121.592C48.0634 124.108 50.4414 124.235 54.0393 121.64C59.6298 117.608 65.8431 114.451 71.7071 110.786C79.2076 106.098 82.6853 99.3319 82.571 90.3839C82.3643 74.2903 82.512 58.1938 82.512 42.0984V39.6617C76.4652 39.6617 70.6742 39.7925 64.8932 39.61C61.7061 39.5093 58.8771 40.091 56.1554 41.7804C53.972 43.1352 51.5842 45.0815 49.2904 45.0771C46.9965 45.0726 44.7077 42.9566 42.3985 41.8028C40.909 41.0584 39.4033 39.8158 37.8754 39.7692C30.7618 39.5512 23.6372 39.6726 16.2708 39.6726ZM85.5692 22.6506C85.3179 22.4049 85.0467 22.1805 84.7583 21.9797C73.3008 15.8647 61.8469 9.73882 50.3481 3.70092C49.728 3.37433 48.5876 3.53762 47.9087 3.89257C39.6791 8.19679 31.4882 12.5742 23.2923 16.9446C19.9159 18.7459 16.5525 20.5688 13.0027 22.479C13.5688 22.8499 13.8936 23.1006 14.2504 23.2911C25.587 29.3411 36.9169 35.4041 48.2926 41.3797C48.9127 41.706 50.0499 41.5454 50.7279 41.1919C58.1581 37.3197 65.5478 33.3698 72.9417 29.4285C77.1154 27.2049 81.2767 24.9554 85.5692 22.6506ZM86.1795 36.1385C86.2386 36.7521 86.3006 37.0887 86.3009 37.4257C86.3041 55.8329 86.3656 74.2407 86.2643 92.6477C86.2321 98.4597 84.7612 104.026 80.5078 108.206C77.3453 111.252 73.9025 113.994 70.2253 116.394C63.6588 120.764 56.8848 124.822 50.1506 128.934C49.6973 129.211 48.7181 129.058 48.2125 128.74C46.0864 127.402 44.0941 125.846 41.9632 124.514C35.6855 120.588 29.2259 116.937 23.0974 112.794C15.6509 107.76 12.2976 100.476 12.3424 91.4662C12.431 73.8291 12.3681 56.1911 12.3681 38.5537V36.1166H30.765L30.8749 35.6096C27.6544 34.2513 25.0009 31.7117 21.0002 31.9996C16.9995 32.2875 12.9555 32.0625 8.77676 32.0625V34.4397C8.77676 53.5472 8.77774 72.6547 8.77971 91.7621C8.78503 101.493 12.3159 109.688 20.3881 115.226C29.9208 121.766 39.8238 127.765 49.668 134.064C51.1052 132.946 52.7096 131.461 54.5319 130.321C60.8692 126.356 67.2712 122.496 73.667 118.625C84.7007 111.948 90.2189 102.531 89.8787 89.2724C89.4127 71.0867 89.7623 52.8802 89.7623 34.6827V32.0637C85.0045 32.0637 80.5438 32.0306 76.084 32.0746C72.7837 32.1068 70.546 34.4249 67.9722 36.1394L86.1795 36.1385Z" fill="white"/>
<path d="M46.7856 104.392C41.3989 104.392 36.2383 104.396 31.078 104.385C30.5361 104.385 29.9946 104.292 29.1996 104.219V101.888C29.1996 93.7001 29.1996 85.5117 29.1996 77.3231C29.1996 74.3451 29.1996 74.3451 25.7355 73.5413C25.9718 78.2849 25.2858 82.9857 26.2015 87.7284H19.7697C20.9066 85.0909 20.7586 69.3758 19.5039 64.8431L29.1048 68.7676V51.0088H47.049V66.8721H41.3991V56.2414H34.424V98.9281H41.4313V88.2355H47.0151C46.6212 93.5189 46.99 98.7825 46.7856 104.392Z" fill="white"/>
<path d="M59.4138 56.6366V50.9492H69.4479V68.8264L79.0155 64.8618C77.7548 70.8536 77.7008 85.122 78.9564 87.6736H72.5946V73.4011C70.2322 74.3833 67.8081 75.3831 65.3894 76.3978C60.5607 78.4247 55.7583 80.5171 50.8904 82.4401C49.8831 82.7896 48.7874 82.789 47.7806 82.4383C44.5749 81.2533 41.4814 79.7644 38.2798 78.5664C36.8007 78.0133 36.1611 77.2532 36.337 75.6672C36.464 74.52 36.3619 73.3474 36.3619 71.8874C40.3888 73.5756 44.0891 75.1865 47.8453 76.6547C48.6553 76.9712 49.783 77.0704 50.5653 76.7625C54.7227 75.1256 58.83 73.3571 62.918 71.5514C63.5063 71.2915 64.3021 70.5926 64.3145 70.0802C64.424 65.5507 64.378 61.0173 64.378 56.0882L59.4138 56.6366Z" fill="white"/>
<path d="M69.3783 104.277H51.8083C51.8083 100.214 51.8467 96.2526 51.7867 92.293C51.7666 90.9641 51.4956 89.6353 51.3281 88.2138H57.2529V98.8866H64.275C64.3117 98.1504 64.3787 97.4146 64.3802 96.6787C64.3893 91.6436 64.4965 86.6047 64.3291 81.5749C64.2638 79.6139 64.8639 78.5821 66.7112 78.12C67.6159 77.8416 68.5054 77.5163 69.3763 77.1455L69.3783 104.277Z" fill="white"/>
<path d="M19.3164 43.1372H25.6469L19.3164 49.8206V43.1372Z" fill="white"/>
<path d="M45.0859 115.283H53.8913L49.8588 119.551L45.0859 115.283Z" fill="white"/>
<path d="M64.146 15.3202C63.7385 15.6565 63.3736 16.1813 62.9135 16.2858C62.1578 16.425 61.3843 16.4391 60.6241 16.3274C58.5047 16.0912 56.7876 16.8501 54.9839 17.9536C51.2954 20.2114 47.2628 20.3984 43.6927 17.9067C41.3097 16.243 38.8909 16.4131 36.3449 16.3032C35.741 16.2772 35.1572 15.7861 34.6992 15.2041C38.3381 14.7125 41.6682 14.4098 44.9318 16.7491C46.2207 17.6658 47.7641 18.1563 49.3458 18.152C50.9274 18.1477 52.4681 17.6487 53.752 16.7249C57.0132 14.3218 60.3737 14.8205 63.8254 14.7943L64.146 15.3202Z" fill="white"/>
<path d="M31.8594 25.4604H42.7132C42.1548 27.4685 40.3775 28.7571 37.9203 28.9892C35.413 29.2258 33.223 28.0124 31.8594 25.4604Z" fill="white"/>
<path d="M55.8516 25.5254H66.4822C66.0915 27.4035 64.2571 28.7547 61.7628 28.9895C60.5359 29.1247 59.2982 28.8607 58.2333 28.2366C57.1685 27.6126 56.3332 26.6618 55.8516 25.5254Z" fill="white"/>
<path d="M32.4062 24.5982C33.5541 22.2875 34.4438 20.405 35.4156 18.5692C36.1665 17.1491 38.5124 17.1222 39.2736 18.5396C40.2546 20.3666 41.1242 22.2536 42.0591 24.1502C40.9075 24.3534 40.9075 24.3534 37.4396 19.0582C35.3468 20.3188 36.1825 24.1166 32.4062 24.5982Z" fill="white"/>
<path d="M61.3074 18.9819C59.4674 20.401 60.0606 23.936 56.3438 24.6852C57.5934 22.1752 58.3958 20.0163 59.7151 18.2424C60.1203 17.6982 62.5641 17.7431 62.9962 18.323C64.2925 20.0632 65.0561 22.2006 66.2409 24.6176C62.5656 23.9972 63.1665 20.4527 61.3074 18.9819Z" fill="white"/>
<path d="M50.7127 20.8091V27.6874H47.9219V20.8091H50.7127Z" fill="white"/>
<path d="M44.6016 34.5311V32.4614H53.9624V34.532L44.6016 34.5311Z" fill="white"/>
<path d="M49.8223 7.93155C50.3639 8.75336 51.2483 9.52851 51.3673 10.4076C51.5444 11.7288 50.5351 12.8178 49.2346 12.5201C48.4524 12.3412 47.4661 11.1432 47.3938 10.3299C47.3265 9.57605 48.3526 8.72473 48.8974 7.9165L49.8223 7.93155Z" fill="white"/>
<path d="M46.9453 16.0965V13.9967C48.2278 13.9967 49.4689 13.9034 50.6814 14.0492C51.0854 14.0977 51.4158 14.758 51.7799 15.1392C51.4294 15.4584 51.1034 16.0133 50.7236 16.0528C49.5587 16.1736 48.3734 16.0965 46.9453 16.0965Z" fill="white"/>
<path d="M47.083 31.1667C46.5751 29.6111 46.9059 28.8905 48.5143 29.0391C49.2747 29.1094 50.0723 28.9449 50.8017 29.1117C51.1856 29.2003 51.7056 29.7664 51.7127 30.1261C51.7195 30.4668 51.1634 31.0828 50.8085 31.1189C49.5683 31.1969 48.3249 31.2129 47.083 31.1667Z" fill="white"/>
<path d="M158.105 54.0084L166.753 56.7506C165.427 61.572 163.218 65.1579 160.124 67.5083C157.05 69.8387 153.143 71.0038 148.402 71.0038C142.536 71.0038 137.714 69.005 133.938 65.0072C130.161 60.9894 128.272 55.5051 128.272 48.5542C128.272 41.2016 130.171 35.4963 133.968 31.4383C137.765 27.3602 142.757 25.3211 148.944 25.3211C154.348 25.3211 158.738 26.9182 162.113 30.1124C164.122 32.0008 165.628 34.7128 166.633 38.2485L157.803 40.3579C157.281 38.0677 156.186 36.2597 154.519 34.9338C152.872 33.6079 150.863 32.945 148.492 32.945C145.218 32.945 142.556 34.1202 140.507 36.4706C138.478 38.821 137.463 42.6279 137.463 47.8913C137.463 53.4761 138.468 57.4537 140.477 59.8242C142.486 62.1947 145.097 63.38 148.311 63.38C150.682 63.38 152.721 62.6267 154.429 61.12C156.136 59.6133 157.362 57.2428 158.105 54.0084ZM201.486 26.0745H210.376V54.0386C210.376 57.6948 210.055 60.5073 209.412 62.476C208.548 65.0474 206.981 67.1166 204.711 68.6835C202.441 70.2304 199.447 71.0038 195.731 71.0038C191.372 71.0038 188.017 69.7884 185.666 67.3577C183.316 64.9068 182.131 61.3209 182.111 56.5999L190.518 55.6356C190.618 58.1669 190.99 59.9548 191.633 60.9994C192.597 62.5865 194.064 63.38 196.032 63.38C198.021 63.38 199.427 62.8175 200.251 61.6925C201.075 60.5474 201.486 58.187 201.486 54.6111V26.0745ZM230.886 70.2505V26.0745H244.235L252.251 56.2082L260.176 26.0745H273.555V70.2505H265.269V35.4762L256.5 70.2505H247.912L239.173 35.4762V70.2505H230.886ZM322.049 70.2505V26.4361H330.969V62.8075H353.147V70.2505H322.049ZM410.481 70.2505H400.778L396.92 60.216H379.262L375.616 70.2505H366.154L383.36 26.0745H392.792L410.481 70.2505ZM394.058 52.7729L387.971 36.3802L382.004 52.7729H394.058ZM429.183 70.2505L418.636 26.0745H427.766L434.426 56.4191L442.502 26.0745H453.109L460.853 56.9314L467.633 26.0745H476.613L465.886 70.2505H456.424L447.625 37.224L438.856 70.2505H429.183ZM503.904 70.2505V51.658L487.722 26.0745H498.178L508.574 43.552L518.759 26.0745H529.035L512.793 51.7183V70.2505H503.904ZM544.573 70.2505V26.0745H577.329V33.5476H553.493V43.3411H575.671V50.7841H553.493V62.8075H578.172V70.2505H544.573ZM596.874 70.2505V26.0745H615.648C620.369 26.0745 623.794 26.4763 625.923 27.2798C628.073 28.0633 629.79 29.4695 631.076 31.4985C632.362 33.5276 633.005 35.8478 633.005 38.4594C633.005 41.7741 632.03 44.5163 630.082 46.6859C628.133 48.8355 625.22 50.1915 621.343 50.754C623.272 51.879 624.859 53.1145 626.104 54.4604C627.37 55.8064 629.067 58.197 631.197 61.6322L636.591 70.2505H625.923L619.475 60.6378C617.185 57.2026 615.618 55.043 614.774 54.1591C613.93 53.2551 613.036 52.6424 612.092 52.3209C611.148 51.9794 609.651 51.8087 607.602 51.8087H605.794V70.2505H596.874ZM605.794 44.7574H612.393C616.672 44.7574 619.344 44.5766 620.409 44.215C621.474 43.8534 622.307 43.2306 622.91 42.3467C623.513 41.4628 623.814 40.3579 623.814 39.032C623.814 37.5454 623.412 36.3501 622.609 35.4461C621.825 34.522 620.71 33.9394 619.264 33.6983C618.541 33.5979 616.371 33.5476 612.755 33.5476H605.794V44.7574ZM650.291 55.8767L658.969 55.033C659.491 57.9459 660.546 60.0854 662.133 61.4514C663.74 62.8175 665.9 63.5005 668.612 63.5005C671.485 63.5005 673.644 62.8979 675.091 61.6925C676.557 60.4671 677.29 59.0408 677.29 57.4135C677.29 56.3689 676.979 55.485 676.356 54.7618C675.754 54.0185 674.689 53.3756 673.162 52.8332C672.117 52.4716 669.737 51.8288 666.02 50.9047C661.239 49.7194 657.884 48.2629 655.956 46.5353C653.244 44.1045 651.888 41.1413 651.888 37.6458C651.888 35.3958 652.521 33.2965 653.786 31.3479C655.072 29.3791 656.91 27.8825 659.301 26.858C661.711 25.8334 664.614 25.3211 668.009 25.3211C673.554 25.3211 677.722 26.5365 680.515 28.9673C683.327 31.3981 684.804 34.6425 684.944 38.7005L676.025 39.0922C675.643 36.8222 674.819 35.1949 673.554 34.2106C672.308 33.2061 670.43 32.7039 667.919 32.7039C665.327 32.7039 663.298 33.2363 661.832 34.301C660.888 34.984 660.416 35.8981 660.416 37.0431C660.416 38.0878 660.858 38.9818 661.741 39.725C662.866 40.6692 665.599 41.6536 669.938 42.6782C674.277 43.7027 677.481 44.7674 679.55 45.8723C681.64 46.9571 683.267 48.4538 684.432 50.3622C685.617 52.2506 686.21 54.591 686.21 57.3834C686.21 59.9146 685.507 62.2851 684.101 64.495C682.694 66.7048 680.706 68.3521 678.134 69.4369C675.563 70.5016 672.359 71.034 668.522 71.034C662.937 71.034 658.648 69.7483 655.654 67.1769C652.661 64.5854 650.873 60.8186 650.291 55.8767Z" fill="white"/>
<path d="M143.65 116.143C143.797 116.143 143.925 116.202 144.035 116.322L145.095 117.463C144.288 118.399 143.306 119.128 142.151 119.651C141.004 120.174 139.615 120.435 137.982 120.435C136.57 120.435 135.286 120.192 134.13 119.706C132.975 119.211 131.989 118.523 131.172 117.642C130.356 116.753 129.723 115.689 129.274 114.451C128.824 113.212 128.6 111.85 128.6 110.365C128.6 108.879 128.834 107.517 129.301 106.279C129.769 105.04 130.425 103.977 131.269 103.087C132.122 102.197 133.14 101.509 134.323 101.023C135.506 100.528 136.813 100.28 138.244 100.28C139.647 100.28 140.885 100.505 141.958 100.955C143.031 101.404 143.976 102.014 144.792 102.784L143.912 104.009C143.857 104.1 143.783 104.178 143.692 104.243C143.609 104.298 143.494 104.325 143.348 104.325C143.182 104.325 142.981 104.238 142.742 104.064C142.504 103.88 142.192 103.679 141.807 103.458C141.422 103.238 140.94 103.041 140.362 102.867C139.784 102.683 139.074 102.592 138.23 102.592C137.212 102.592 136.281 102.771 135.437 103.128C134.593 103.477 133.864 103.986 133.25 104.655C132.644 105.325 132.172 106.141 131.833 107.104C131.493 108.067 131.324 109.154 131.324 110.365C131.324 111.594 131.498 112.69 131.846 113.653C132.204 114.616 132.686 115.432 133.291 116.101C133.905 116.762 134.625 117.266 135.451 117.615C136.285 117.963 137.184 118.137 138.147 118.137C138.734 118.137 139.262 118.105 139.729 118.041C140.206 117.968 140.642 117.858 141.036 117.711C141.44 117.564 141.811 117.381 142.151 117.161C142.499 116.931 142.843 116.661 143.182 116.349C143.338 116.211 143.494 116.143 143.65 116.143ZM159.154 110.048C159.924 110.048 160.603 109.956 161.19 109.773C161.786 109.58 162.281 109.314 162.676 108.975C163.079 108.627 163.382 108.214 163.584 107.737C163.786 107.26 163.886 106.733 163.886 106.155C163.886 104.981 163.501 104.096 162.731 103.5C161.96 102.904 160.805 102.605 159.264 102.605H156.347V110.048H159.154ZM168.261 120.215H165.895C165.409 120.215 165.051 120.027 164.822 119.651L159.704 112.607C159.548 112.387 159.379 112.231 159.195 112.139C159.021 112.038 158.746 111.988 158.37 111.988H156.347V120.215H153.692V100.501H159.264C160.511 100.501 161.589 100.629 162.497 100.886C163.405 101.133 164.152 101.496 164.739 101.973C165.336 102.45 165.776 103.027 166.06 103.706C166.344 104.376 166.487 105.128 166.487 105.962C166.487 106.659 166.377 107.31 166.156 107.916C165.936 108.521 165.615 109.067 165.193 109.553C164.781 110.03 164.272 110.438 163.666 110.777C163.07 111.117 162.391 111.373 161.63 111.548C161.97 111.74 162.263 112.02 162.511 112.387L168.261 120.215ZM194.472 110.365C194.472 111.841 194.238 113.199 193.771 114.437C193.303 115.666 192.643 116.725 191.79 117.615C190.937 118.504 189.909 119.197 188.708 119.692C187.516 120.178 186.195 120.421 184.746 120.421C183.297 120.421 181.976 120.178 180.784 119.692C179.591 119.197 178.569 118.504 177.716 117.615C176.863 116.725 176.203 115.666 175.735 114.437C175.267 113.199 175.033 111.841 175.033 110.365C175.033 108.888 175.267 107.535 175.735 106.306C176.203 105.068 176.863 104.004 177.716 103.114C178.569 102.216 179.591 101.519 180.784 101.023C181.976 100.528 183.297 100.28 184.746 100.28C186.195 100.28 187.516 100.528 188.708 101.023C189.909 101.519 190.937 102.216 191.79 103.114C192.643 104.004 193.303 105.068 193.771 106.306C194.238 107.535 194.472 108.888 194.472 110.365ZM191.735 110.365C191.735 109.154 191.569 108.067 191.239 107.104C190.909 106.141 190.441 105.329 189.836 104.669C189.231 104 188.497 103.486 187.635 103.128C186.773 102.771 185.81 102.592 184.746 102.592C183.691 102.592 182.733 102.771 181.871 103.128C181.008 103.486 180.27 104 179.656 104.669C179.05 105.329 178.583 106.141 178.252 107.104C177.922 108.067 177.757 109.154 177.757 110.365C177.757 111.575 177.922 112.662 178.252 113.625C178.583 114.579 179.05 115.391 179.656 116.06C180.27 116.72 181.008 117.229 181.871 117.587C182.733 117.936 183.691 118.11 184.746 118.11C185.81 118.11 186.773 117.936 187.635 117.587C188.497 117.229 189.231 116.72 189.836 116.06C190.441 115.391 190.909 114.579 191.239 113.625C191.569 112.662 191.735 111.575 191.735 110.365ZM219.766 100.501V120.215H218.432C218.221 120.215 218.042 120.178 217.895 120.105C217.757 120.031 217.62 119.908 217.482 119.733L206.077 104.875C206.096 105.105 206.11 105.329 206.119 105.55C206.128 105.77 206.132 105.976 206.132 106.169V120.215H203.794V100.501H205.169C205.289 100.501 205.39 100.51 205.472 100.528C205.555 100.537 205.628 100.56 205.692 100.597C205.756 100.624 205.821 100.67 205.885 100.734C205.949 100.789 206.018 100.863 206.091 100.955L217.496 115.799C217.478 115.56 217.459 115.331 217.441 115.111C217.432 114.882 217.427 114.666 217.427 114.464V100.501H219.766ZM232.978 120.215H230.309V100.501H232.978V120.215ZM259.496 100.501V120.215H258.161C257.95 120.215 257.771 120.178 257.625 120.105C257.487 120.031 257.35 119.908 257.212 119.733L245.807 104.875C245.826 105.105 245.839 105.329 245.848 105.55C245.858 105.77 245.862 105.976 245.862 106.169V120.215H243.523V100.501H244.899C245.018 100.501 245.119 100.51 245.202 100.528C245.284 100.537 245.358 100.56 245.422 100.597C245.486 100.624 245.55 100.67 245.615 100.734C245.679 100.789 245.748 100.863 245.821 100.955L257.226 115.799C257.207 115.56 257.189 115.331 257.171 115.111C257.162 114.882 257.157 114.666 257.157 114.464V100.501H259.496ZM281.247 112.029C281.247 111.672 281.311 111.337 281.44 111.025C281.577 110.704 281.761 110.429 281.99 110.199C282.228 109.961 282.503 109.778 282.815 109.649C283.127 109.512 283.462 109.443 283.82 109.443C284.186 109.443 284.526 109.512 284.838 109.649C285.159 109.778 285.434 109.961 285.663 110.199C285.902 110.429 286.09 110.704 286.227 111.025C286.365 111.337 286.433 111.672 286.433 112.029C286.433 112.387 286.365 112.722 286.227 113.034C286.09 113.336 285.902 113.607 285.663 113.845C285.434 114.074 285.159 114.258 284.838 114.395C284.526 114.524 284.186 114.588 283.82 114.588C283.462 114.588 283.127 114.524 282.815 114.395C282.503 114.258 282.228 114.074 281.99 113.845C281.761 113.607 281.577 113.336 281.44 113.034C281.311 112.722 281.247 112.387 281.247 112.029ZM314.624 113.405C314.624 114.506 314.487 115.491 314.212 116.363C313.946 117.234 313.547 117.972 313.015 118.578C312.492 119.174 311.845 119.632 311.075 119.953C310.305 120.274 309.42 120.435 308.42 120.435C307.512 120.435 306.586 120.307 305.641 120.05C305.659 119.784 305.682 119.522 305.71 119.266C305.737 119 305.76 118.738 305.778 118.481C305.797 118.326 305.852 118.202 305.944 118.11C306.044 118.009 306.196 117.959 306.398 117.959C306.563 117.959 306.778 118 307.044 118.082C307.319 118.165 307.686 118.206 308.145 118.206C308.75 118.206 309.291 118.115 309.768 117.931C310.245 117.748 310.644 117.463 310.965 117.078C311.286 116.693 311.529 116.202 311.694 115.606C311.868 115.001 311.956 114.285 311.956 113.46V100.501H314.624V113.405ZM335.167 112.896L332.071 104.875C331.979 104.637 331.883 104.362 331.782 104.05C331.681 103.729 331.585 103.39 331.493 103.032C331.301 103.775 331.104 104.394 330.902 104.889L327.806 112.896H335.167ZM340.725 120.215H338.661C338.422 120.215 338.23 120.155 338.083 120.036C337.936 119.917 337.826 119.765 337.753 119.582L335.909 114.822H327.063L325.22 119.582C325.165 119.747 325.059 119.894 324.904 120.022C324.748 120.151 324.555 120.215 324.326 120.215H322.262L330.145 100.501H332.842L340.725 120.215ZM369.333 100.501V120.215H366.994V105.728C366.994 105.536 366.999 105.329 367.008 105.109C367.027 104.889 367.045 104.664 367.063 104.435L360.295 116.762C360.084 117.174 359.763 117.381 359.332 117.381H358.946C358.515 117.381 358.194 117.174 357.983 116.762L351.077 104.38C351.132 104.866 351.16 105.316 351.16 105.728V120.215H348.821V100.501H350.788C351.027 100.501 351.21 100.523 351.339 100.569C351.467 100.615 351.591 100.744 351.71 100.955L358.52 113.089C358.63 113.309 358.735 113.538 358.836 113.776C358.946 114.015 359.047 114.258 359.139 114.506C359.231 114.258 359.327 114.015 359.428 113.776C359.529 113.529 359.639 113.295 359.758 113.075L366.444 100.955C366.554 100.744 366.673 100.615 366.802 100.569C366.939 100.523 367.127 100.501 367.366 100.501H369.333ZM392.039 118.041L392.025 120.215H379.877V100.501H392.025V102.674H382.546V109.223H390.223V111.314H382.546V118.041H392.039ZM411.344 103.582C411.262 103.72 411.17 103.825 411.069 103.899C410.977 103.963 410.863 103.995 410.725 103.995C410.569 103.995 410.386 103.917 410.175 103.761C409.964 103.605 409.698 103.435 409.377 103.252C409.065 103.059 408.684 102.885 408.235 102.729C407.795 102.573 407.258 102.495 406.625 102.495C406.029 102.495 405.502 102.578 405.043 102.743C404.594 102.899 404.213 103.114 403.902 103.39C403.599 103.665 403.37 103.99 403.214 104.366C403.058 104.733 402.98 105.132 402.98 105.563C402.98 106.114 403.113 106.572 403.379 106.939C403.654 107.297 404.012 107.604 404.452 107.861C404.901 108.118 405.406 108.342 405.965 108.535C406.534 108.718 407.112 108.911 407.699 109.113C408.295 109.314 408.872 109.544 409.432 109.801C410.001 110.048 410.505 110.365 410.945 110.75C411.395 111.135 411.752 111.607 412.018 112.167C412.293 112.726 412.431 113.414 412.431 114.23C412.431 115.093 412.284 115.904 411.991 116.665C411.697 117.418 411.266 118.073 410.698 118.633C410.138 119.192 409.446 119.632 408.62 119.953C407.804 120.274 406.873 120.435 405.828 120.435C404.544 120.435 403.379 120.206 402.333 119.747C401.288 119.279 400.393 118.651 399.65 117.862L400.421 116.597C400.494 116.496 400.581 116.413 400.682 116.349C400.792 116.276 400.912 116.239 401.04 116.239C401.159 116.239 401.292 116.289 401.439 116.39C401.595 116.482 401.769 116.601 401.962 116.748C402.154 116.895 402.374 117.055 402.622 117.229C402.87 117.404 403.149 117.564 403.461 117.711C403.782 117.858 404.145 117.982 404.548 118.082C404.952 118.174 405.406 118.22 405.91 118.22C406.543 118.22 407.107 118.133 407.602 117.959C408.097 117.784 408.515 117.541 408.854 117.229C409.203 116.908 409.469 116.528 409.652 116.088C409.836 115.647 409.927 115.157 409.927 114.616C409.927 114.019 409.79 113.533 409.514 113.157C409.249 112.772 408.895 112.451 408.455 112.194C408.015 111.938 407.511 111.722 406.942 111.548C406.373 111.364 405.795 111.181 405.208 110.997C404.621 110.805 404.044 110.585 403.475 110.337C402.906 110.089 402.402 109.768 401.962 109.374C401.521 108.98 401.164 108.489 400.889 107.902C400.623 107.306 400.49 106.572 400.49 105.701C400.49 105.004 400.623 104.33 400.889 103.679C401.164 103.027 401.558 102.45 402.072 101.945C402.595 101.441 403.232 101.037 403.984 100.734C404.745 100.432 405.617 100.28 406.598 100.28C407.699 100.28 408.698 100.455 409.597 100.803C410.505 101.152 411.303 101.656 411.991 102.317L411.344 103.582ZM432.911 112.029C432.911 111.672 432.975 111.337 433.104 111.025C433.241 110.704 433.425 110.429 433.654 110.199C433.892 109.961 434.168 109.778 434.479 109.649C434.791 109.512 435.126 109.443 435.484 109.443C435.851 109.443 436.19 109.512 436.502 109.649C436.823 109.778 437.098 109.961 437.327 110.199C437.566 110.429 437.754 110.704 437.891 111.025C438.029 111.337 438.098 111.672 438.098 112.029C438.098 112.387 438.029 112.722 437.891 113.034C437.754 113.336 437.566 113.607 437.327 113.845C437.098 114.074 436.823 114.258 436.502 114.395C436.19 114.524 435.851 114.588 435.484 114.588C435.126 114.588 434.791 114.524 434.479 114.395C434.168 114.258 433.892 114.074 433.654 113.845C433.425 113.607 433.241 113.336 433.104 113.034C432.975 112.722 432.911 112.387 432.911 112.029ZM480.354 100.501V120.215H478.015V105.728C478.015 105.536 478.02 105.329 478.029 105.109C478.047 104.889 478.066 104.664 478.084 104.435L471.315 116.762C471.104 117.174 470.783 117.381 470.352 117.381H469.967C469.536 117.381 469.215 117.174 469.004 116.762L462.098 104.38C462.153 104.866 462.18 105.316 462.18 105.728V120.215H459.842V100.501H461.809C462.047 100.501 462.231 100.523 462.359 100.569C462.488 100.615 462.612 100.744 462.731 100.955L469.541 113.089C469.651 113.309 469.756 113.538 469.857 113.776C469.967 114.015 470.068 114.258 470.16 114.506C470.251 114.258 470.348 114.015 470.449 113.776C470.549 113.529 470.66 113.295 470.779 113.075L477.465 100.955C477.575 100.744 477.694 100.615 477.823 100.569C477.96 100.523 478.148 100.501 478.387 100.501H480.354ZM504.738 116.143C504.884 116.143 505.013 116.202 505.123 116.322L506.182 117.463C505.375 118.399 504.394 119.128 503.238 119.651C502.092 120.174 500.702 120.435 499.07 120.435C497.657 120.435 496.373 120.192 495.218 119.706C494.062 119.211 493.076 118.523 492.26 117.642C491.444 116.753 490.811 115.689 490.361 114.451C489.912 113.212 489.687 111.85 489.687 110.365C489.687 108.879 489.921 107.517 490.389 106.279C490.857 105.04 491.512 103.977 492.356 103.087C493.209 102.197 494.227 101.509 495.41 101.023C496.593 100.528 497.9 100.28 499.331 100.28C500.734 100.28 501.973 100.505 503.046 100.955C504.119 101.404 505.063 102.014 505.88 102.784L504.999 104.009C504.944 104.1 504.871 104.178 504.779 104.243C504.696 104.298 504.582 104.325 504.435 104.325C504.27 104.325 504.068 104.238 503.83 104.064C503.591 103.88 503.279 103.679 502.894 103.458C502.509 103.238 502.028 103.041 501.45 102.867C500.872 102.683 500.161 102.592 499.317 102.592C498.299 102.592 497.368 102.771 496.525 103.128C495.681 103.477 494.952 103.986 494.337 104.655C493.732 105.325 493.26 106.141 492.92 107.104C492.581 108.067 492.411 109.154 492.411 110.365C492.411 111.594 492.585 112.69 492.934 113.653C493.292 114.616 493.773 115.432 494.378 116.101C494.993 116.762 495.713 117.266 496.538 117.615C497.373 117.963 498.272 118.137 499.235 118.137C499.822 118.137 500.349 118.105 500.817 118.041C501.294 117.968 501.729 117.858 502.124 117.711C502.527 117.564 502.899 117.381 503.238 117.161C503.587 116.931 503.931 116.661 504.27 116.349C504.426 116.211 504.582 116.143 504.738 116.143ZM525.964 117.972V120.215H514.78V100.501H517.435V117.972H525.964ZM544.886 112.896L541.79 104.875C541.698 104.637 541.602 104.362 541.501 104.05C541.4 103.729 541.304 103.39 541.212 103.032C541.02 103.775 540.823 104.394 540.621 104.889L537.525 112.896H544.886ZM550.444 120.215H548.38C548.141 120.215 547.949 120.155 547.802 120.036C547.655 119.917 547.545 119.765 547.472 119.582L545.628 114.822H536.782L534.939 119.582C534.884 119.747 534.778 119.894 534.623 120.022C534.467 120.151 534.274 120.215 534.045 120.215H531.981L539.864 100.501H542.561L550.444 120.215ZM565.691 118.096C566.507 118.096 567.236 117.959 567.878 117.683C568.52 117.408 569.062 117.023 569.502 116.528C569.951 116.033 570.291 115.441 570.52 114.753C570.758 114.065 570.877 113.309 570.877 112.483V100.501H573.533V112.483C573.533 113.62 573.349 114.675 572.982 115.647C572.625 116.62 572.106 117.463 571.428 118.179C570.758 118.885 569.937 119.44 568.965 119.843C567.993 120.247 566.902 120.449 565.691 120.449C564.48 120.449 563.389 120.247 562.417 119.843C561.445 119.44 560.619 118.885 559.94 118.179C559.262 117.463 558.739 116.62 558.372 115.647C558.014 114.675 557.836 113.62 557.836 112.483V100.501H560.491V112.469C560.491 113.295 560.605 114.052 560.835 114.739C561.073 115.427 561.412 116.019 561.853 116.514C562.302 117.009 562.848 117.399 563.49 117.683C564.141 117.959 564.875 118.096 565.691 118.096ZM599.833 110.736V118.303C598.842 119.018 597.783 119.554 596.655 119.912C595.536 120.261 594.307 120.435 592.968 120.435C591.381 120.435 589.95 120.192 588.675 119.706C587.401 119.211 586.309 118.523 585.401 117.642C584.502 116.753 583.81 115.689 583.324 114.451C582.838 113.212 582.595 111.85 582.595 110.365C582.595 108.86 582.829 107.489 583.296 106.251C583.773 105.013 584.447 103.954 585.319 103.073C586.19 102.184 587.249 101.496 588.497 101.01C589.744 100.523 591.138 100.28 592.679 100.28C593.458 100.28 594.183 100.34 594.852 100.459C595.522 100.569 596.141 100.734 596.71 100.955C597.278 101.165 597.806 101.427 598.292 101.739C598.778 102.041 599.232 102.385 599.654 102.771L598.897 103.981C598.778 104.165 598.622 104.284 598.429 104.339C598.246 104.385 598.04 104.339 597.81 104.201C597.59 104.073 597.338 103.917 597.054 103.734C596.769 103.55 596.421 103.376 596.008 103.211C595.605 103.036 595.123 102.89 594.564 102.771C594.013 102.651 593.358 102.592 592.596 102.592C591.487 102.592 590.482 102.775 589.583 103.142C588.685 103.5 587.919 104.018 587.286 104.697C586.653 105.366 586.167 106.182 585.828 107.145C585.488 108.099 585.319 109.172 585.319 110.365C585.319 111.603 585.493 112.713 585.841 113.694C586.199 114.666 586.704 115.496 587.355 116.184C588.015 116.863 588.813 117.381 589.748 117.739C590.684 118.096 591.734 118.275 592.899 118.275C593.816 118.275 594.628 118.174 595.334 117.972C596.049 117.761 596.746 117.473 597.425 117.106V112.772H594.357C594.183 112.772 594.041 112.722 593.931 112.621C593.83 112.52 593.779 112.396 593.779 112.249V110.736H599.833ZM625.393 100.501V120.215H622.724V111.245H612.09V120.215H609.421V100.501H612.09V109.292H622.724V100.501H625.393ZM647.121 117.972V120.215H635.936V100.501H638.591V117.972H647.121ZM658.241 120.215H655.572V100.501H658.241V120.215ZM684.759 100.501V120.215H683.425C683.214 120.215 683.035 120.178 682.888 120.105C682.751 120.031 682.613 119.908 682.475 119.733L671.071 104.875C671.089 105.105 671.103 105.329 671.112 105.55C671.121 105.77 671.126 105.976 671.126 106.169V120.215H668.787V100.501H670.163C670.282 100.501 670.383 100.51 670.465 100.528C670.548 100.537 670.621 100.56 670.685 100.597C670.75 100.624 670.814 100.67 670.878 100.734C670.942 100.789 671.011 100.863 671.084 100.955L682.489 115.799C682.471 115.56 682.453 115.331 682.434 115.111C682.425 114.882 682.42 114.666 682.42 114.464V100.501H684.759Z" fill="white"/>
</svg>
