<svg width="261" height="370" viewBox="0 0 261 370" fill="none" xmlns="http://www.w3.org/2000/svg">
<path d="M193.188 114.249H210.13V131.968L193.188 114.249Z" fill="#19184B"/>
<path d="M106.315 359.622H117.667C112.853 354.378 108.717 348.065 100.804 349.14C91.053 350.466 84.111 345.39 75.791 339.519L87.065 339.019C79.41 333.912 72.755 326.908 62.445 328.591C54.297 329.92 49.385 323.583 43.165 319.421H54.093L54.52 317.887C48.52 314.194 44.629 307.461 35.668 308.154C26.139 308.891 26.095 308.317 19.681 299.054L31.946 298.418C28.704 291.303 25.001 286.704 16.446 287.786C9.146 288.71 7.954 286.954 6.476 278.198H19.65C18.01 267.714 18.01 267.714 9.032 267.685C2.287 267.663 2.287 267.663 1.319 258.264L14.897 257.629L13.904 247.279H0.0690002V238.01L13.78 237.402V227.238H0.147995V217.501H13.616V206.983H0.0289917V197.354L13.751 196.731V186.331H0V176.768H13.634V166.023H0.0579987V156.303H13.694V146.003H0.158997V136.117H13.788V125.928L0.071991 125.275V115.881H13.704V105.3H0.0370026V95.7932H13.622V85.0212H0.128998V75.1972H43.543C30.799 62.9152 15.522 63.9872 0.11499 64.6872V54.7472C7.34299 54.7472 14.505 54.9222 21.65 54.6562C24.3707 54.5752 27.0412 53.903 29.476 52.6861C61.6853 35.6815 93.838 18.5695 125.934 1.35015C129.213 -0.409847 131.7 -0.477843 135.034 1.31516C166.788 18.3938 198.617 35.3335 230.521 52.1341C233.62 53.6453 237 54.4966 240.445 54.6341C247.067 55.0171 253.726 54.7472 260.772 54.7472V64.5972C245.731 64.1632 230.344 62.7352 217.804 75.0162H260.749V84.8592H247.275V95.3782H260.792V105.12H247.42V115.65H260.674V125.318H247.398V135.784H260.753V145.638H247.365V156.068H260.777V165.948H247.298V176.459H260.81V186.259H247.416V196.848H260.664V206.808H247.415V217.068H260.763V226.968H247.329V237.497H260.792V247.151H247.183L245.955 257.851H260.079C259.425 261.558 258.922 264.404 258.387 267.438C250.963 268.409 240.628 264.357 241.578 278.15H254.589C253.472 286.281 251.589 288.779 244.762 287.776C236.085 286.503 232.432 291.339 229.011 298.398L240.593 298.962C237.816 306.044 234.606 309.157 228.159 308.121C218.317 306.541 213.001 313.178 205.377 318.721L217.47 319.267C211.77 323.835 206.788 329.883 198.587 328.558C188.387 326.909 181.815 333.925 174.023 338.924H183.889L184.318 340.515C177.849 343.606 172.937 350.215 164.556 348.975C155.17 347.582 148.996 352.717 141.847 359.318H155.379C150.3 365.289 146.658 370.562 138.634 369.365C134.225 368.752 129.752 368.747 125.342 369.35C117.112 370.427 111.045 367.588 106.315 359.622ZM43.059 104.989C42.909 107.154 42.72 108.604 42.719 110.054C42.705 154.132 42.833 198.21 42.657 242.286C42.575 263.031 50.752 279.42 67.968 290.686C84.356 301.411 101.878 310.466 117.819 321.786C127.195 328.443 133.49 328.778 143.011 321.911C157.811 311.24 174.249 302.885 189.768 293.187C209.619 280.781 218.821 262.874 218.519 239.194C217.975 196.606 218.365 154.005 218.365 111.409V104.961C202.365 104.961 187.037 105.307 171.738 104.824C163.303 104.558 155.817 106.097 148.614 110.568C142.836 114.153 136.514 119.304 130.446 119.292C124.378 119.28 118.318 113.68 112.207 110.627C108.265 108.657 104.281 105.369 100.237 105.245C81.409 104.668 62.554 104.989 43.059 104.989ZM226.453 59.9412C225.789 59.2902 225.071 58.6962 224.307 58.1652C193.983 41.9822 163.674 25.7712 133.243 9.79115C131.598 8.92715 128.584 9.35916 126.787 10.2982C105.008 21.6892 83.331 33.2772 61.642 44.8402C52.706 49.6032 43.805 54.4312 34.411 59.4862C35.911 60.4672 36.768 61.1312 37.711 61.6352C67.711 77.6462 97.696 93.6911 127.801 109.505C129.445 110.369 132.451 109.944 134.246 109.005C153.909 98.7582 173.466 88.3052 193.034 77.8752C204.081 71.9902 215.094 66.0412 226.453 59.9412ZM228.068 95.6412C228.227 97.2642 228.389 98.1562 228.389 99.0472C228.398 147.761 228.561 196.476 228.289 245.189C228.204 260.57 224.311 275.3 213.055 286.362C204.686 294.424 195.575 301.68 185.843 308.031C168.465 319.596 150.538 330.337 132.716 341.219C131.516 341.951 128.925 341.546 127.588 340.704C121.957 337.163 116.688 333.046 111.049 329.52C94.435 319.132 77.341 309.47 61.122 298.506C41.415 285.183 32.541 265.906 32.659 242.062C32.89 195.387 32.727 148.709 32.727 102.032V95.5781H81.412L81.703 94.2362C73.18 90.6362 66.157 83.9242 55.57 84.6832C44.983 85.4422 34.28 84.8492 23.221 84.8492V91.1402C23.221 141.706 23.2237 192.273 23.229 242.84C23.243 268.593 32.588 290.281 53.95 304.94C79.178 322.248 105.385 338.124 131.438 354.793C135.238 351.833 139.49 347.903 144.31 344.888C161.081 334.395 178.023 324.176 194.95 313.934C224.15 296.266 238.75 271.347 237.85 236.253C236.616 188.126 237.541 139.944 237.541 91.7851V84.8541C224.95 84.8541 213.141 84.7661 201.341 84.8821C192.608 84.9681 186.686 91.1032 179.874 95.6402L228.068 95.6412Z" fill="#19184B"/>
<path d="M123.824 276.268C109.568 276.268 95.911 276.28 82.254 276.251C80.821 276.251 79.3871 276.005 77.2841 275.811V269.638C77.2841 247.968 77.2841 226.298 77.2841 204.627C77.2841 196.746 77.284 196.746 68.116 194.619C68.739 207.172 66.9261 219.613 69.3501 232.165H52.33C55.338 225.184 54.947 183.595 51.623 171.597L77.03 181.984V134.984H124.524V176.968H109.569V148.838H91.1101V261.803H109.654V233.503H124.43C123.389 247.488 124.362 261.419 123.824 276.268Z" fill="#19184B"/>
<path d="M157.236 149.883V134.832H183.791V182.143L209.111 171.65C205.775 187.507 205.632 225.268 208.954 232.021H192.116V194.25C185.865 196.85 179.449 199.494 173.05 202.18C160.272 207.544 147.562 213.08 134.676 218.17C132.011 219.096 129.111 219.096 126.446 218.17C117.962 215.034 109.775 211.093 101.302 207.923C97.3883 206.459 95.6953 204.448 96.1613 200.251C96.3541 196.921 96.3758 193.583 96.2263 190.251C106.883 194.719 116.676 198.982 126.617 202.867C128.914 203.784 131.455 203.885 133.817 203.153C144.817 198.821 155.689 194.141 166.508 189.362C168.065 188.674 170.171 186.824 170.208 185.468C170.497 173.481 170.376 161.484 170.376 148.439L157.236 149.883Z" fill="#19184B"/>
<path d="M183.597 275.955H137.104C137.104 265.203 137.204 254.72 137.047 244.241C136.994 240.721 136.277 237.211 135.834 233.441H151.513V261.686H170.097C170.197 259.738 170.371 257.791 170.375 255.843C170.399 242.518 170.683 229.183 170.24 215.872C170.067 210.682 171.655 207.951 176.54 206.729C178.934 205.994 181.288 205.134 183.593 204.154L183.597 275.955Z" fill="#19184B"/>
<path d="M51.1172 114.158H67.8702L51.1172 131.846V114.158Z" fill="#19184B"/>
<path d="M119.324 305.086H142.63L131.958 316.386L119.324 305.086Z" fill="#19184B"/>
<path d="M169.758 40.5413C168.68 41.4313 167.714 42.8193 166.497 43.0963C164.497 43.4648 162.45 43.502 160.438 43.2063C154.829 42.5833 150.285 44.5903 145.514 47.5063C135.753 53.4813 125.081 53.9763 115.633 47.3813C109.327 42.9813 102.925 43.4293 96.188 43.1383C94.588 43.0693 93.044 41.7703 91.832 40.2293C101.463 38.9293 110.274 38.1293 118.912 44.3193C122.323 46.745 126.408 48.0429 130.593 48.0312C134.779 48.0196 138.856 46.699 142.254 44.2543C150.885 37.8943 159.778 39.2143 168.913 39.1453L169.758 40.5413Z" fill="#19184B"/>
<path d="M84.3047 67.376H113.03C111.552 72.692 106.848 76.101 100.345 76.714C93.7087 77.34 87.9127 74.129 84.3047 67.376Z" fill="#19184B"/>
<path d="M147.812 67.5474H175.943C174.909 72.5184 170.054 76.0934 163.453 76.7154C160.207 77.0726 156.932 76.3735 154.115 74.722C151.297 73.0704 149.087 70.5544 147.812 67.5474Z" fill="#19184B"/>
<path d="M85.7598 65.0923C88.7978 58.9763 91.1518 53.9993 93.7238 49.1363C95.7118 45.3783 101.924 45.3073 103.934 49.0593C106.534 53.8953 108.834 58.8893 111.307 63.9083C108.256 64.4463 108.256 64.4463 99.0807 50.4323C93.5407 53.7683 95.7528 63.8173 85.7598 65.0923Z" fill="#19184B"/>
<path d="M162.249 50.2323C157.38 53.9883 158.949 63.3433 149.113 65.3253C152.42 58.6843 154.544 52.9703 158.035 48.2753C159.107 46.8343 165.575 46.9543 166.718 48.4883C170.149 53.0933 172.17 58.7503 175.305 65.1463C165.579 63.5043 167.169 54.1243 162.249 50.2323Z" fill="#19184B"/>
<path d="M134.214 55.0684V73.2684H126.83V55.0684H134.214Z" fill="#19184B"/>
<path d="M118.035 91.3813V85.9023H142.806V91.3813H118.035Z" fill="#19184B"/>
<path d="M131.845 20.9864C133.279 23.1604 135.619 25.2124 135.934 27.5394C136.407 31.0394 133.735 33.9164 130.291 33.1294C128.221 32.6564 125.61 29.4854 125.418 27.3294C125.24 25.3354 127.956 23.0824 129.397 20.9434L131.845 20.9864Z" fill="#19184B"/>
<path d="M124.236 42.5971V37.0401C127.532 36.8923 130.833 36.9384 134.123 37.1781C135.192 37.3071 136.066 39.0551 137.03 40.0631C136.102 40.9081 135.239 42.3761 134.23 42.4811C131.152 42.8001 128.015 42.5971 124.236 42.5971Z" fill="#19184B"/>
<path d="M124.603 82.4792C123.259 78.3632 124.136 76.4562 128.391 76.8492C130.403 77.0352 132.514 76.6002 134.444 77.0422C135.038 77.2527 135.57 77.6085 135.991 78.0774C136.412 78.5462 136.709 79.1131 136.855 79.7262C136.717 80.3336 136.425 80.8949 136.005 81.3554C135.586 81.8158 135.055 82.1596 134.463 82.3532C131.215 82.6812 127.914 82.4792 124.603 82.4792Z" fill="#19184B"/>
</svg>
